<svg width="117" height="31" viewBox="0 0 117 31" fill="none" xmlns="http://www.w3.org/2000/svg">
<mask id="mask0_2816_69" style="mask-type:alpha" maskUnits="userSpaceOnUse" x="1" y="0" width="26" height="31">
<path fill-rule="evenodd" clip-rule="evenodd" d="M2.07649 7.3341C2.91699 2.53034 7.45926 -0.620778 12.1383 0.354416C16.7301 1.31149 19.6209 6.00594 18.7402 10.7099V10.7099L18.4117 12.4641C18.0677 14.2997 19.2455 16.0726 21.0413 16.4238C24.7118 17.1416 27.273 20.7225 26.5876 24.4765C25.9011 28.2343 22.3491 30.6982 18.6785 29.9629C15.0117 29.2282 12.7007 25.4736 13.403 21.7224C13.7464 19.8868 12.5693 18.1142 10.7731 17.7629V17.7629L9.05639 17.4272C4.4536 16.5271 1.25175 12.0487 2.07649 7.3341Z" fill="white"/>
</mask>
<g mask="url(#mask0_2816_69)">
<path fill-rule="evenodd" clip-rule="evenodd" d="M0.0668182 31.1772H32.7335V0.177246H0.0668182V31.1772Z" fill="url(#paint0_linear_2816_69)"/>
</g>
<mask id="mask1_2816_69" style="mask-type:alpha" maskUnits="userSpaceOnUse" x="0" y="20" width="10" height="11">
<path fill-rule="evenodd" clip-rule="evenodd" d="M1.6416 21.8595C-0.201538 23.7429 -0.201538 26.7968 1.6416 28.6801C3.48418 30.5635 6.47239 30.5635 8.31553 28.6801C10.1581 26.7968 10.1581 23.7429 8.31553 21.8595C6.47239 19.9762 3.48418 19.9762 1.6416 21.8595" fill="white"/>
</mask>
<g mask="url(#mask1_2816_69)">
<path fill-rule="evenodd" clip-rule="evenodd" d="M1.6416 21.8595C-0.201538 23.7429 -0.201538 26.7968 1.6416 28.6801C3.48418 30.5635 6.47239 30.5635 8.31553 28.6801C10.1581 26.7968 10.1581 23.7429 8.31553 21.8595C6.47239 19.9762 3.48418 19.9762 1.6416 21.8595" fill="url(#paint1_linear_2816_69)"/>
</g>
<path fill-rule="evenodd" clip-rule="evenodd" d="M82.13 21.09C81.9767 21.23 81.7867 21.3 81.56 21.3C81.32 21.3 81.1233 21.23 80.97 21.09C80.8167 20.95 80.74 20.7533 80.74 20.5V7.8C80.74 7.54667 80.8167 7.35 80.97 7.21C81.1233 7.07 81.32 7 81.56 7C81.7867 7 81.9767 7.07 82.13 7.21C82.2833 7.35 82.36 7.54667 82.36 7.8V20.5C82.36 20.7533 82.2833 20.95 82.13 21.09ZM57.84 20.72C57.1333 21.1333 56.32 21.34 55.4 21.34C54.48 21.34 53.67 21.1333 52.97 20.72C52.27 20.3067 51.73 19.7167 51.35 18.95C50.97 18.1833 50.78 17.2933 50.78 16.28C50.78 15.2667 50.97 14.3767 51.35 13.61C51.73 12.8433 52.27 12.2533 52.97 11.84C53.67 11.4267 54.48 11.22 55.4 11.22C56.32 11.22 57.1333 11.4267 57.84 11.84C58.5467 12.2533 59.09 12.8433 59.47 13.61C59.85 14.3767 60.04 15.2667 60.04 16.28C60.04 17.2933 59.85 18.1833 59.47 18.95C59.09 19.7167 58.5467 20.3067 57.84 20.72ZM43.71 24.76C43.5833 24.84 43.4533 24.88 43.32 24.88C43.12 24.88 42.9433 24.8167 42.79 24.69C42.6367 24.5633 42.56 24.4 42.56 24.2C42.56 24.0933 42.5867 23.9867 42.64 23.88L44.04 20.86L40.08 12.3C40.0267 12.2067 40 12.1067 40 12C40 11.8 40.09 11.6267 40.27 11.48C40.45 11.3333 40.6467 11.26 40.86 11.26C40.9933 11.26 41.1233 11.3 41.25 11.38C41.3767 11.46 41.4733 11.5733 41.54 11.72L44.88 19.22L48.22 11.76C48.3667 11.44 48.6 11.28 48.92 11.28C49.12 11.28 49.3 11.3467 49.46 11.48C49.62 11.6133 49.7 11.78 49.7 11.98C49.7 12.1 49.6733 12.2067 49.62 12.3L44 24.42C43.9333 24.5667 43.8367 24.68 43.71 24.76ZM55.4 20C54.44 20 53.7033 19.68 53.19 19.04C52.6767 18.4 52.42 17.48 52.42 16.28C52.42 15.0933 52.68 14.1767 53.2 13.53C53.72 12.8833 54.4533 12.56 55.4 12.56C56.3467 12.56 57.08 12.8833 57.6 13.53C58.12 14.1767 58.38 15.0933 58.38 16.28C58.38 17.4933 58.1233 18.4167 57.61 19.05C57.0967 19.6833 56.36 20 55.4 20ZM67.79 20.88C67.2367 21.1867 66.6133 21.34 65.92 21.34C64.76 21.34 63.8867 21.0167 63.3 20.37C62.7133 19.7233 62.42 18.7667 62.42 17.5V12.06C62.42 11.82 62.4933 11.6267 62.64 11.48C62.7867 11.3333 62.9867 11.26 63.24 11.26C63.4933 11.26 63.69 11.3333 63.83 11.48C63.97 11.6267 64.04 11.82 64.04 12.06V17.46C64.04 18.3267 64.2133 18.9633 64.56 19.37C64.9067 19.7767 65.4533 19.98 66.2 19.98C67.0533 19.98 67.74 19.7033 68.26 19.15C68.78 18.5967 69.04 17.8667 69.04 16.96V12.06C69.04 11.82 69.1133 11.6267 69.26 11.48C69.4067 11.3333 69.6067 11.26 69.86 11.26C70.1133 11.26 70.31 11.3333 70.45 11.48C70.59 11.6267 70.66 11.82 70.66 12.06V20.52C70.66 20.7467 70.59 20.9333 70.45 21.08C70.31 21.2267 70.1133 21.3 69.86 21.3C69.62 21.3 69.43 21.23 69.29 21.09C69.15 20.95 69.08 20.7667 69.08 20.54V19.54C68.7733 20.1267 68.3433 20.5733 67.79 20.88ZM74.5 21.3C74.74 21.3 74.9333 21.2333 75.08 21.1C75.2267 20.9667 75.3 20.7667 75.3 20.5V15.64C75.3 14.8933 75.5167 14.2433 75.95 13.69C76.3833 13.1367 77.0467 12.82 77.94 12.74L78.54 12.68C78.8333 12.6533 79.04 12.5767 79.16 12.45C79.28 12.3233 79.34 12.1533 79.34 11.94C79.34 11.4467 79.06 11.22 78.5 11.26L78.22 11.28C77.5533 11.3333 76.9633 11.5133 76.45 11.82C75.9367 12.1267 75.54 12.5733 75.26 13.16V12.04C75.26 11.8 75.1867 11.61 75.04 11.47C74.8933 11.33 74.7133 11.26 74.5 11.26C74.2733 11.26 74.08 11.33 73.92 11.47C73.76 11.61 73.68 11.8067 73.68 12.06V20.5C73.68 20.7533 73.7567 20.95 73.91 21.09C74.0633 21.23 74.26 21.3 74.5 21.3ZM89.42 21.34C90.34 21.34 91.1533 21.1333 91.86 20.72C92.5667 20.3067 93.11 19.7167 93.49 18.95C93.87 18.1833 94.06 17.2933 94.06 16.28C94.06 15.2667 93.87 14.3767 93.49 13.61C93.11 12.8433 92.5667 12.2533 91.86 11.84C91.1533 11.4267 90.34 11.22 89.42 11.22C88.5 11.22 87.69 11.4267 86.99 11.84C86.29 12.2533 85.75 12.8433 85.37 13.61C84.99 14.3767 84.8 15.2667 84.8 16.28C84.8 17.2933 84.99 18.1833 85.37 18.95C85.75 19.7167 86.29 20.3067 86.99 20.72C87.69 21.1333 88.5 21.34 89.42 21.34ZM87.21 19.04C87.7233 19.68 88.46 20 89.42 20C90.38 20 91.1167 19.6833 91.63 19.05C92.1433 18.4167 92.4 17.4933 92.4 16.28C92.4 15.0933 92.14 14.1767 91.62 13.53C91.1 12.8833 90.3667 12.56 89.42 12.56C88.4733 12.56 87.74 12.8833 87.22 13.53C86.7 14.1767 86.44 15.0933 86.44 16.28C86.44 17.48 86.6967 18.4 87.21 19.04ZM100.76 24.94C102.227 24.94 103.333 24.57 104.08 23.83C104.827 23.09 105.2 21.9933 105.2 20.54V12.06C105.2 11.82 105.127 11.6267 104.98 11.48C104.833 11.3333 104.633 11.26 104.38 11.26C104.127 11.26 103.93 11.3333 103.79 11.48C103.65 11.6267 103.58 11.82 103.58 12.06V13.14C103.287 12.5267 102.853 12.0533 102.28 11.72C101.707 11.3867 101.033 11.22 100.26 11.22C99.4067 11.22 98.65 11.42 97.99 11.82C97.33 12.22 96.8167 12.7867 96.45 13.52C96.0833 14.2533 95.9 15.1 95.9 16.06C95.9 17.02 96.0833 17.8667 96.45 18.6C96.8167 19.3333 97.33 19.9 97.99 20.3C98.65 20.7 99.4067 20.9 100.26 20.9C101.047 20.9 101.73 20.7333 102.31 20.4C102.89 20.0667 103.32 19.5867 103.6 18.96V20.68C103.6 21.64 103.36 22.37 102.88 22.87C102.4 23.37 101.687 23.62 100.74 23.62C100.113 23.62 99.5733 23.5467 99.12 23.4C98.6667 23.2533 98.2067 23.06 97.74 22.82C97.3933 22.6333 97.1533 22.54 97.02 22.54C96.86 22.54 96.73 22.6 96.63 22.72C96.53 22.84 96.48 22.9933 96.48 23.18C96.48 23.5267 96.72 23.8333 97.2 24.1C98.1467 24.66 99.3333 24.94 100.76 24.94ZM98.35 18.63C98.89 19.25 99.6333 19.56 100.58 19.56C101.513 19.56 102.247 19.25 102.78 18.63C103.313 18.01 103.58 17.1533 103.58 16.06C103.58 14.98 103.317 14.13 102.79 13.51C102.263 12.89 101.527 12.58 100.58 12.58C99.6333 12.58 98.89 12.89 98.35 13.51C97.81 14.13 97.54 14.98 97.54 16.06C97.54 17.1533 97.81 18.01 98.35 18.63ZM112.24 21.34C113.16 21.34 113.973 21.1333 114.68 20.72C115.387 20.3067 115.93 19.7167 116.31 18.95C116.69 18.1833 116.88 17.2933 116.88 16.28C116.88 15.2667 116.69 14.3767 116.31 13.61C115.93 12.8433 115.387 12.2533 114.68 11.84C113.973 11.4267 113.16 11.22 112.24 11.22C111.32 11.22 110.51 11.4267 109.81 11.84C109.11 12.2533 108.57 12.8433 108.19 13.61C107.81 14.3767 107.62 15.2667 107.62 16.28C107.62 17.2933 107.81 18.1833 108.19 18.95C108.57 19.7167 109.11 20.3067 109.81 20.72C110.51 21.1333 111.32 21.34 112.24 21.34ZM110.03 19.04C110.543 19.68 111.28 20 112.24 20C113.2 20 113.937 19.6833 114.45 19.05C114.963 18.4167 115.22 17.4933 115.22 16.28C115.22 15.0933 114.96 14.1767 114.44 13.53C113.92 12.8833 113.187 12.56 112.24 12.56C111.293 12.56 110.56 12.8833 110.04 13.53C109.52 14.1767 109.26 15.0933 109.26 16.28C109.26 17.48 109.517 18.4 110.03 19.04Z" fill="#171C2D"/>
<defs>
<linearGradient id="paint0_linear_2816_69" x1="-16.0599" y1="15.7426" x2="14.7671" y2="48.227" gradientUnits="userSpaceOnUse">
<stop stop-color="#192B74"/>
<stop offset="1" stop-color="#2946A1"/>
</linearGradient>
<linearGradient id="paint1_linear_2816_69" x1="-4.40018" y1="25.2902" x2="5.20254" y2="34.6864" gradientUnits="userSpaceOnUse">
<stop stop-color="#192B74"/>
<stop offset="1" stop-color="#2946A1"/>
</linearGradient>
</defs>
</svg>
